HIERARCHY
ROOT Hips
{
	OFFSET -3.003445 105.600998 -6.138755
	CHANNELS 6 Xposition Yposition Zposition Xrotation Yrotation Zrotation
	JOINT Chest
	{
		OFFSET 3.428939 13.185799 -0.728956
		CHANNELS 3 Xrotation Yrotation Zrotation
		JOINT Chest2
		{
			OFFSET 2.735851 21.246513 0.409142
			CHANNELS 3 Xrotation Yrotation Zrotation
			JOINT Chest3
			{
				OFFSET 4.264594 14.287308 0.711254
				CHANNELS 3 Xrotation Yrotation Zrotation
				JOINT Neck
				{
					OFFSET 2.980939 17.019150 -0.280176
					CHANNELS 3 Xrotation Yrotation Zrotation
					JOINT Head
					{
						OFFSET 0.368670 10.083725 2.830222
						CHANNELS 3 Xrotation Yrotation Zrotation
						End Site
						{
							OFFSET 0.407409 10.098907 2.770125
						}
					}
				}
				JOINT LeftCollar
				{
					OFFSET 4.898324 12.672134 4.150616
					CHANNELS 3 Xrotation Yrotation Zrotation
					JOINT LeftUpArm
					{
						OFFSET 17.505196 -1.437790 0.018092
						CHANNELS 3 Xrotation Yrotation Zrotation
						JOINT LeftLowArm
						{
							OFFSET 29.643782 -0.580307 16.144279
							CHANNELS 3 Xrotation Yrotation Zrotation
							JOINT LeftHand
							{
								OFFSET -24.966381 12.802185 10.664496
								CHANNELS 3 Xrotation Yrotation Zrotation
								End Site
								{
									OFFSET -5.456551 2.797989 2.330791
								}
							}
						}
					}
				}
				JOINT RightCollar
				{
					OFFSET -2.659328 13.938721 0.669703
					CHANNELS 3 Xrotation Yrotation Zrotation
					JOINT RightUpArm
					{
						OFFSET -13.186758 0.121613 -11.601336
						CHANNELS 3 Xrotation Yrotation Zrotation
						JOINT RightLowArm
						{
							OFFSET -31.273933 0.554367 12.703078
							CHANNELS 3 Xrotation Yrotation Zrotation
							JOINT RightHand
							{
								OFFSET 18.903845 17.173859 15.768926
								CHANNELS 3 Xrotation Yrotation Zrotation
								End Site
								{
									OFFSET 4.131624 3.753510 3.446453
								}
							}
						}
					}
				}
			}
		}
	}
	JOINT LeftUpLeg
	{
		OFFSET 5.795004 -1.059036 8.106511
		CHANNELS 3 Xrotation Yrotation Zrotation
		JOINT LeftLowLeg
		{
			OFFSET -38.689831 -17.462593 21.027227
			CHANNELS 3 Xrotation Yrotation Zrotation
			JOINT LeftFoot
			{
				OFFSET -35.371105 -23.980869 13.204941
				CHANNELS 3 Xrotation Yrotation Zrotation
				JOINT LeftToe
				{
					OFFSET -23.059723 -4.646389 2.493931
					CHANNELS 3 Xrotation Yrotation Zrotation
					End Site
					{
						OFFSET -19.587898 9.246933 9.506184
					}
				}
			}
		}
	}
	JOINT RightUpLeg
	{
		OFFSET -5.795056 1.058846 -8.106504
		CHANNELS 3 Xrotation Yrotation Zrotation
		JOINT RightLowLeg
		{
			OFFSET -5.274252 -47.013084 -2.441976
			CHANNELS 3 Xrotation Yrotation Zrotation
			JOINT RightFoot
			{
				OFFSET 17.871437 -40.321110 -7.443062
				CHANNELS 3 Xrotation Yrotation Zrotation
				JOINT RightToe
				{
					OFFSET -11.171984 -19.289228 7.916384
					CHANNELS 3 Xrotation Yrotation Zrotation
					End Site
					{
						OFFSET -21.616802 -7.369825 6.160818
					}
				}
			}
		}
	}
}
MOTION
Frames: 11
Frame Time: 0.033333
1.629277 104.858696 -1.111727 18.930581 51.507088 7.950554 -9.155323 1.949437 -8.581916 -6.572537 -1.718425 3.969078 4.671862 -22.373840 -4.130643 -18.379269 2.848420 -4.513255 -0.000000 0.000000 -0.000000 17.506888 -7.052082 -23.606259 23.147491 -31.415459 -38.405932 102.537826 42.294963 -99.340068 0.000004 -0.000004 0.000004 -2.331957 -8.607229 21.447858 20.649641 -8.476646 50.962859 75.576576 -31.688762 79.942576 -0.000001 -0.000003 0.000003 19.765673 8.915748 44.776886 1.053934 3.650624 -2.542916 -18.509121 33.080556 -29.091722 -0.000002 -0.000001 -0.000000 -8.719466 5.116943 -13.149915 2.070784 -2.438449 -17.129448 10.139507 19.417815 -2.210905 0.000001 -0.000001 -0.000000 
1.630818 104.856712 -1.107156 17.608463 52.488931 7.447691 -8.266265 1.549210 -7.156326 -7.285622 -1.728289 3.623044 4.860645 -24.064071 -4.067263 -17.269611 2.985798 -4.354524 -0.000000 0.000000 -0.000001 17.444879 -6.366473 -23.859167 23.452428 -30.800922 -38.823506 102.418092 42.327888 -99.214495 -0.000003 0.000001 0.000003 -2.096316 -7.803442 21.473389 20.430931 -8.144125 50.675714 75.837312 -31.791904 80.505903 -0.000001 -0.000002 0.000003 20.518920 9.350023 46.088324 1.023701 3.799413 -2.436298 -19.298247 32.622585 -29.221206 0.000001 0.000001 0.000002 -7.787426 4.620093 -11.576668 1.735113 -2.472288 -17.295204 10.859173 18.434976 -2.182677 0.000001 0.000002 0.000003 
1.624042 104.851402 -1.104716 17.344840 52.823631 7.197378 -8.262215 1.529058 -6.999796 -6.814454 -1.971132 4.341567 4.078311 -24.734307 -4.770992 -16.693035 3.061638 -4.246737 0.000001 0.000001 0.000001 17.453631 -5.571810 -23.968546 23.548004 -30.914222 -38.804565 102.660387 42.193787 -99.304919 0.000004 -0.000001 0.000003 -1.826350 -7.357784 21.300153 20.327828 -7.631677 50.652027 75.997848 -31.990690 80.908618 0.000002 -0.000007 0.000005 20.687297 9.513317 46.515767 0.922761 3.860510 -2.453380 -19.680043 32.626772 -29.440567 -0.000000 0.000003 -0.000003 -7.495538 4.481942 -11.006780 1.512599 -2.469761 -17.418948 11.220257 18.202673 -2.221068 0.000002 0.000002 0.000001 
1.621724 104.850960 -1.101470 18.250289 52.120364 7.499045 -8.829263 1.764381 -7.868469 -6.309570 -1.918893 4.516617 3.843004 -23.761470 -4.776196 -17.640797 3.198560 -4.479365 0.000002 0.000000 0.000000 17.515236 -5.831928 -23.874187 23.424094 -31.624910 -38.381292 102.864807 42.532923 -99.471392 0.000004 -0.000004 -0.000000 -1.715564 -7.268542 21.343607 20.571013 -7.791541 50.804880 75.480666 -32.518626 80.113147 -0.000001 -0.000002 0.000004 20.120037 9.203466 45.573860 0.987180 3.763835 -2.562718 -19.127940 32.737281 -29.189466 -0.000000 0.000001 -0.000002 -8.131274 4.810430 -12.036772 1.652810 -2.484225 -17.410542 10.470944 18.833360 -2.170945 0.000001 0.000001 0.000003 
1.617877 104.857422 -1.104477 18.606984 52.145212 7.507054 -9.007398 1.841113 -8.129230 -6.038809 -2.036900 4.870552 3.651331 -23.120793 -5.098157 -18.166927 3.028537 -4.470642 0.000001 -0.000003 -0.000001 17.551189 -6.472151 -23.504634 23.507901 -31.587870 -38.343668 102.382316 42.950634 -98.904766 -0.000002 -0.000004 0.000002 -2.073735 -8.388353 21.334769 20.666346 -7.809436 50.793576 75.581958 -32.436425 80.071961 -0.000001 -0.000002 0.000001 19.906089 9.096209 45.200566 1.113550 3.758199 -2.246632 -19.394088 32.876241 -29.414818 0.000002 0.000000 0.000002 -8.334874 4.897350 -12.289337 1.792771 -2.551321 -17.309953 9.940796 19.106242 -2.215522 -0.000002 0.000001 0.000003 
1.613795 104.853371 -1.105381 17.741985 52.742164 7.071883 -8.368815 1.548897 -6.974354 -6.538692 -2.078659 4.710416 3.626776 -24.567398 -5.245184 -16.984304 3.236454 -4.335653 0.000000 0.000002 -0.000000 17.537981 -5.659470 -24.004915 23.757607 -30.809860 -38.578619 101.847082 42.908532 -98.266287 -0.000002 -0.000000 0.000002 -1.773344 -7.380633 21.293267 20.432002 -7.503105 50.635396 75.528710 -32.420483 80.276292 0.000004 -0.000001 -0.000002 20.364617 9.459332 46.295712 1.104297 3.728111 -2.089810 -19.965813 32.720352 -29.673938 -0.000001 0.000002 -0.000001 -7.801754 4.630332 -11.204037 1.725239 -2.464578 -17.254854 10.672685 18.279697 -2.160694 0.000002 -0.000001 -0.000000 
1.605070 104.850037 -1.104619 17.302454 53.270602 6.840616 -8.012290 1.393417 -6.397218 -6.475376 -2.193466 4.998957 3.189230 -25.053636 -5.706804 -16.535342 3.183848 -4.198996 -0.000001 0.000002 -0.000001 17.519148 -5.615532 -24.145301 23.664811 -30.777375 -38.605711 101.832069 42.720706 -98.473344 0.000003 -0.000001 0.000001 -1.797710 -7.245395 21.276825 20.419667 -7.690243 50.774779 75.447376 -32.180156 80.357121 -0.000000 -0.000003 0.000003 20.551780 9.597307 46.798370 1.070107 3.723355 -2.137300 -20.086562 32.655445 -29.686359 -0.000001 -0.000002 0.000002 -7.599330 4.550497 -10.804194 1.756716 -2.436028 -17.030950 10.908735 17.653278 -2.098008 0.000001 -0.000000 -0.000002 
1.592753 104.853500 -1.110499 16.906035 53.113050 7.011261 -7.800588 1.338003 -6.237558 -6.520096 -2.171188 4.914050 3.296697 -25.069183 -5.674904 -16.587451 3.148320 -4.137569 -0.000000 -0.000000 -0.000000 17.348272 -5.907592 -24.079859 23.608595 -30.088162 -38.959590 100.914269 42.527985 -97.554526 0.000005 0.000001 0.000003 -2.110682 -7.694336 21.128972 20.309689 -8.098914 51.136151 75.540772 -31.538720 80.645048 -0.000001 -0.000002 0.000001 20.826589 9.630285 47.013469 0.927195 3.880079 -2.288080 -20.051110 32.522502 -29.614529 -0.000001 0.000001 -0.000002 -7.301944 4.387772 -10.562491 1.594872 -2.422698 -17.176358 10.932512 17.951286 -2.039950 0.000002 0.000001 0.000001 
1.581456 104.854652 -1.115078 16.974168 53.263605 6.995075 -7.800164 1.343269 -6.321593 -6.659448 -2.088759 4.664734 3.452167 -25.335523 -5.383979 -16.585928 3.283956 -4.224996 0.000001 0.000004 0.000001 17.324454 -5.671117 -23.999738 23.638284 -30.147178 -39.169923 101.330023 42.403648 -97.980150 0.000003 -0.000001 -0.000001 -2.098812 -7.729389 21.130145 20.248492 -7.942485 51.042045 75.866866 -31.545502 81.089290 0.000003 -0.000001 0.000002 20.764248 9.601070 46.911686 0.869787 3.876706 -2.301197 -20.190036 32.419951 -29.642427 0.000002 0.000003 -0.000005 -7.337836 4.412764 -10.614373 1.577014 -2.402802 -17.265993 11.123488 17.813000 -2.066985 0.000000 0.000001 0.000001 
1.570812 104.856430 -1.123360 17.547659 52.233428 7.625902 -8.006903 1.477893 -7.136079 -6.898568 -1.754669 3.887759 4.078274 -23.947183 -4.644704 -17.361562 3.124535 -4.295991 -0.000000 -0.000002 -0.000001 17.436155 -6.154314 -23.892015 23.549524 -30.416379 -38.929278 101.005500 42.761670 -97.739987 0.000003 -0.000002 0.000002 -2.135328 -7.931573 21.279347 20.577053 -8.330829 51.341948 75.418771 -31.897004 80.461466 0.000002 -0.000001 0.000003 20.426138 9.275786 46.053975 0.864888 3.760567 -2.415782 -19.426960 32.532345 -29.266807 -0.000001 -0.000001 -0.000000 -7.837532 4.705578 -11.701153 1.833757 -2.378329 -17.185418 10.160808 18.774059 -2.117789 -0.000001 -0.000001 -0.000004 
1.555842 104.856598 -1.131978 17.369630 53.179976 6.910420 -7.801819 1.352711 -6.312205 -7.150200 -1.890224 4.026008 3.841260 -25.155547 -5.022863 -16.614170 3.233025 -4.240984 -0.000000 0.000003 0.000001 17.375515 -5.987478 -24.045283 23.585552 -30.044957 -39.195133 100.723762 42.708664 -97.609332 0.000003 -0.000003 0.000000 -1.998797 -7.214042 21.271033 20.378733 -8.227848 51.190997 75.363686 -31.809622 80.732501 -0.000000 0.000002 -0.000001 20.458590 9.538369 46.650448 0.985656 3.756354 -2.013796 -20.135049 32.541586 -29.682844 0.000001 -0.000001 -0.000000 -7.493833 4.502403 -10.789567 1.528418 -2.424796 -17.261059 10.852920 17.826283 -2.112171 0.000001 -0.000000 -0.000000 
